# xmcd
#
# Track frame offsets:
# 150
# 16404
# 32735
# 47690
# 68705
# 85604
# 101568
# 121427
# 135387
# 150481
# 173226
# 189606
# 199769
# 216971
# 232857
# 250919
# 265794
#
# Disc length: 3722 seconds
#
# Revision: 1
# Processed by: cddbd v1.5PL3 Copyright (c) Steve Scherf et al.
# Submitted via: Easy CD Ripper 1.45
#
DISCID=de0e8811
DTITLE=alles  - Country
DYEAR=1998
DGENRE=Country
TTITLE0=
TTITLE1=Alles - 
TTITLE2=Alles - 
TTITLE3=Alles - 
TTITLE4=Alles - 
TTITLE5=Alles - 
TTITLE6=Alles - 
TTITLE7=Alles - 
TTITLE8=Alles - 
TTITLE9=Alles - 
TTITLE10=Alles - 
TTITLE11=Alles - 
TTITLE12=Alles - 
TTITLE13=Alles - 
TTITLE14=Alles - 
TTITLE15=Alles - 
TTITLE16=Alles - 
EXTD=
EXTT0=
EXTT1=
EXTT2=
EXTT3=
EXTT4=
EXTT5=
EXTT6=
EXTT7=
EXTT8=
EXTT9=
EXTT10=
EXTT11=
EXTT12=
EXTT13=
EXTT14=
EXTT15=
EXTT16=
PLAYORDER=
